<svg width="55" height="54" viewBox="0 0 55 54" fill="none" xmlns="http://www.w3.org/2000/svg">
<g filter="url(#filter0_d_9035_68031)">
<rect x="5.5" y="4" width="44" height="44" rx="22" fill="white"/>
<path d="M27.5 17.9999C23.0806 17.9999 19.5 21.5805 19.5 25.9999C19.5 30.4192 23.0806 33.9999 27.5 33.9999C31.9194 33.9999 35.5 30.4192 35.5 25.9999C35.5 21.5805 31.9194 17.9999 27.5 17.9999ZM33.2742 23.1612H31.1129C30.8871 21.9999 30.5323 20.9676 30.0806 20.1289C31.4677 20.7418 32.5968 21.8063 33.2742 23.1612ZM27.5 19.5483C28.0806 19.5483 29.0484 20.9031 29.5323 23.1612H25.4355C25.9194 20.9031 26.8871 19.5483 27.5 19.5483ZM21.0484 25.9999C21.0484 25.5805 21.0806 25.1289 21.1774 24.7096H23.6613C23.629 25.1612 23.629 25.5805 23.629 25.9999C23.629 26.4515 23.629 26.8708 23.6613 27.2902H21.1774C21.0806 26.9031 21.0484 26.4515 21.0484 25.9999ZM21.6935 28.8386H23.8548C24.0806 30.0321 24.4355 31.0644 24.8871 31.9031C23.5 31.2902 22.371 30.1934 21.6935 28.8386ZM23.8548 23.1612H21.6935C22.371 21.8063 23.5 20.7418 24.8871 20.1289C24.4355 20.9676 24.0806 21.9999 23.8548 23.1612ZM27.5 32.4515C26.8871 32.4515 25.9194 31.1289 25.4355 28.8386H29.5323C29.0484 31.1289 28.0806 32.4515 27.5 32.4515ZM29.7581 27.2902H25.2097C25.1774 26.9031 25.1774 26.4515 25.1774 25.9999C25.1774 25.5483 25.1774 25.1289 25.2097 24.7096H29.7581C29.7903 25.1289 29.8226 25.5483 29.8226 25.9999C29.8226 26.4515 29.7903 26.9031 29.7581 27.2902ZM30.0806 31.9031C30.5323 31.0644 30.8871 30.0321 31.1129 28.8386H33.2742C32.5968 30.1934 31.4677 31.2902 30.0806 31.9031ZM31.3065 27.2902C31.3387 26.8708 31.371 26.4515 31.371 25.9999C31.371 25.5805 31.3387 25.1612 31.3065 24.7096H33.8226C33.8871 25.1289 33.9516 25.5805 33.9516 25.9999C33.9516 26.4515 33.8871 26.9031 33.8226 27.2902H31.3065Z" fill="#565757"/>
<rect x="6" y="4.5" width="43" height="43" rx="21.5" stroke="white"/>
</g>
<defs>
<filter id="filter0_d_9035_68031" x="0.5" y="0" width="54" height="54" filterUnits="userSpaceOnUse" color-interpolation-filters="sRGB">
<feFlood flood-opacity="0" result="BackgroundImageFix"/>
<feColorMatrix in="SourceAlpha" type="matrix" values="0 0 0 0 0 0 0 0 0 0 0 0 0 0 0 0 0 0 127 0" result="hardAlpha"/>
<feMorphology radius="1" operator="dilate" in="SourceAlpha" result="effect1_dropShadow_9035_68031"/>
<feOffset dy="1"/>
<feGaussianBlur stdDeviation="2"/>
<feColorMatrix type="matrix" values="0 0 0 0 0 0 0 0 0 0 0 0 0 0 0 0 0 0 0.08 0"/>
<feBlend mode="normal" in2="BackgroundImageFix" result="effect1_dropShadow_9035_68031"/>
<feBlend mode="normal" in="SourceGraphic" in2="effect1_dropShadow_9035_68031" result="shape"/>
</filter>
</defs>
</svg>
